<svg width="44" height="45" viewBox="0 0 44 45" fill="none" xmlns="http://www.w3.org/2000/svg">
<path d="M7.33334 33.5C6.8139 33.5 6.37878 33.324 6.02801 32.972C5.67723 32.62 5.50123 32.1849 5.50001 31.6667C5.49878 31.1484 5.67478 30.7133 6.02801 30.3613C6.38123 30.0093 6.81634 29.8333 7.33334 29.8333H36.6667C37.1861 29.8333 37.6218 30.0093 37.9738 30.3613C38.3258 30.7133 38.5012 31.1484 38.5 31.6667C38.4988 32.1849 38.3228 32.6206 37.972 32.9738C37.6212 33.3271 37.1861 33.5024 36.6667 33.5H7.33334ZM7.33334 24.3333C6.8139 24.3333 6.37878 24.1573 6.02801 23.8053C5.67723 23.4533 5.50123 23.0182 5.50001 22.5C5.49878 21.9818 5.67478 21.5467 6.02801 21.1947C6.38123 20.8427 6.81634 20.6667 7.33334 20.6667H36.6667C37.1861 20.6667 37.6218 20.8427 37.9738 21.1947C38.3258 21.5467 38.5012 21.9818 38.5 22.5C38.4988 23.0182 38.3228 23.4539 37.972 23.8072C37.6212 24.1604 37.1861 24.3358 36.6667 24.3333H7.33334ZM7.33334 15.1667C6.8139 15.1667 6.37878 14.9907 6.02801 14.6387C5.67723 14.2867 5.50123 13.8516 5.50001 13.3333C5.49878 12.8151 5.67478 12.38 6.02801 12.028C6.38123 11.676 6.81634 11.5 7.33334 11.5H36.6667C37.1861 11.5 37.6218 11.676 37.9738 12.028C38.3258 12.38 38.5012 12.8151 38.5 13.3333C38.4988 13.8516 38.3228 14.2873 37.972 14.6405C37.6212 14.9937 37.1861 15.1691 36.6667 15.1667H7.33334Z" fill="white"/>
</svg>
